NotoSansHatran-Regular.ufo
<glyph name="u108E0" format="2">
  <advance width="783"/>
  <unicode hex="108E0"/>
  <outline>
    <contour>
      <point x="51" y="0" type="curve" smooth="yes"/>
      <point x="585" y="0" type="line" smooth="yes"/>
      <point x="666" y="0"/>
      <point x="683" y="29"/>
      <point x="683" y="80" type="curve" smooth="yes"/>
      <point x="683" y="541" type="line" smooth="yes"/>
      <point x="683" y="553"/>
      <point x="661" y="560"/>
      <point x="638" y="560" type="curve" smooth="yes"/>
      <point x="616" y="560"/>
      <point x="593" y="553"/>
      <point x="593" y="541" type="curve" smooth="yes"/>
      <point x="593" y="139" type="line" smooth="yes"/>
      <point x="593" y="95"/>
      <point x="585" y="80"/>
      <point x="527" y="80" type="curve" smooth="yes"/>
      <point x="311" y="80" type="line"/>
      <point x="311" y="541" type="line" smooth="yes"/>
      <point x="311" y="553"/>
      <point x="288" y="560"/>
      <point x="266" y="560" type="curve" smooth="yes"/>
      <point x="243" y="560"/>
      <point x="221" y="553"/>
      <point x="221" y="541" type="curve" smooth="yes"/>
      <point x="221" y="80" type="line"/>
      <point x="51" y="80" type="line" smooth="yes"/>
      <point x="37" y="80"/>
      <point x="30" y="60"/>
      <point x="30" y="40" type="curve" smooth="yes"/>
      <point x="30" y="20"/>
      <point x="37" y="0"/>
    </contour>
  </outline>
</glyph>
<glyph name="u108E1" format="2">
  <advance width="637"/>
  <unicode hex="108E1"/>
  <outline>
    <contour>
      <point x="51" y="0" type="curve" smooth="yes"/>
      <point x="352" y="0" type="line" smooth="yes"/>
      <point x="525" y="0"/>
      <point x="577" y="142"/>
      <point x="577" y="257" type="curve" smooth="yes"/>
      <point x="577" y="362"/>
      <point x="511" y="474"/>
      <point x="430" y="550" type="curve" smooth="yes"/>
      <point x="427" y="553"/>
      <point x="423" y="554"/>
      <point x="419" y="554" type="curve" smooth="yes"/>
      <point x="400" y="554"/>
      <point x="361" y="523"/>
      <point x="361" y="498" type="curve" smooth="yes"/>
      <point x="361" y="493"/>
      <point x="362" y="487"/>
      <point x="366" y="484" type="curve" smooth="yes"/>
      <point x="441" y="411"/>
      <point x="482" y="334"/>
      <point x="482" y="254" type="curve" smooth="yes"/>
      <point x="482" y="159"/>
      <point x="445" y="80"/>
      <point x="345" y="80" type="curve" smooth="yes"/>
      <point x="51" y="80" type="line" smooth="yes"/>
      <point x="37" y="80"/>
      <point x="30" y="60"/>
      <point x="30" y="40" type="curve" smooth="yes"/>
      <point x="30" y="20"/>
      <point x="37" y="0"/>
    </contour>
  </outline>
</glyph>
<glyph name="u108E2" format="2">
  <advance width="684"/>
  <unicode hex="108E2"/>
  <outline>
    <contour>
      <point x="51" y="0" type="curve" smooth="yes"/>
      <point x="648" y="0" type="line" smooth="yes"/>
      <point x="664" y="0"/>
      <point x="674" y="6"/>
      <point x="674" y="17" type="curve" smooth="yes"/>
      <point x="674" y="24"/>
      <point x="670" y="34"/>
      <point x="660" y="45" type="curve" smooth="yes"/>
      <point x="234" y="543" type="line" smooth="yes"/>
      <point x="224" y="555"/>
      <point x="209" y="569"/>
      <point x="194" y="569" type="curve" smooth="yes"/>
      <point x="175" y="569"/>
      <point x="145" y="552"/>
      <point x="145" y="521" type="curve" smooth="yes"/>
      <point x="145" y="510"/>
      <point x="151" y="499"/>
      <point x="164" y="483" type="curve" smooth="yes"/>
      <point x="508" y="80" type="line"/>
      <point x="51" y="80" type="line" smooth="yes"/>
      <point x="37" y="80"/>
      <point x="30" y="60"/>
      <point x="30" y="40" type="curve" smooth="yes"/>
      <point x="30" y="20"/>
      <point x="37" y="0"/>
    </contour>
  </outline>
</glyph>
<glyph name="u108E3" format="2">
  <advance width="512"/>
  <unicode hex="108E3"/>
  <outline>
    <contour>
      <point x="367" y="0" type="curve" smooth="yes"/>
      <point x="390" y="0"/>
      <point x="412" y="7"/>
      <point x="412" y="19" type="curve" smooth="yes"/>
      <point x="412" y="480" type="line" smooth="yes"/>
      <point x="412" y="531"/>
      <point x="395" y="560"/>
      <point x="314" y="560" type="curve" smooth="yes"/>
      <point x="51" y="560" type="line"/>
      <point x="37" y="560"/>
      <point x="30" y="540"/>
      <point x="30" y="520" type="curve" smooth="yes"/>
      <point x="30" y="500"/>
      <point x="37" y="480"/>
      <point x="51" y="480" type="curve" smooth="yes"/>
      <point x="256" y="480" type="line" smooth="yes"/>
      <point x="314" y="480"/>
      <point x="322" y="465"/>
      <point x="322" y="421" type="curve" smooth="yes"/>
      <point x="322" y="19" type="line" smooth="yes"/>
      <point x="322" y="7"/>
      <point x="345" y="0"/>
    </contour>
  </outline>
</glyph>
<glyph name="u108E4" format="2">
  <advance width="823"/>
  <unicode hex="108E4"/>
  <outline>
    <contour>
      <point x="115" y="-10" type="curve" smooth="yes"/>
      <point x="137" y="-10"/>
      <point x="144" y="4"/>
      <point x="159" y="35" type="curve" smooth="yes"/>
      <point x="299" y="328" type="line"/>
      <point x="619" y="22" type="line" smooth="yes"/>
      <point x="634" y="7"/>
      <point x="655" y="-10"/>
      <point x="679" y="-10" type="curve" smooth="yes"/>
      <point x="716" y="-10"/>
      <point x="723" y="5"/>
      <point x="723" y="60" type="curve" smooth="yes"/>
      <point x="723" y="541" type="line" smooth="yes"/>
      <point x="723" y="553"/>
      <point x="701" y="560"/>
      <point x="678" y="560" type="curve" smooth="yes"/>
      <point x="656" y="560"/>
      <point x="633" y="553"/>
      <point x="633" y="541" type="curve" smooth="yes"/>
      <point x="633" y="139" type="line" smooth="yes"/>
      <point x="633" y="135"/>
      <point x="632" y="132"/>
      <point x="631" y="129" type="curve"/>
      <point x="216" y="534" type="line" smooth="yes"/>
      <point x="205" y="545"/>
      <point x="189" y="560"/>
      <point x="174" y="560" type="curve" smooth="yes"/>
      <point x="155" y="560"/>
      <point x="127" y="543"/>
      <point x="127" y="512" type="curve" smooth="yes"/>
      <point x="127" y="501"/>
      <point x="131" y="488"/>
      <point x="146" y="474" type="curve" smooth="yes"/>
      <point x="234" y="390" type="line"/>
      <point x="73" y="53" type="line" smooth="yes"/>
      <point x="69" y="44"/>
      <point x="66" y="35"/>
      <point x="66" y="28" type="curve" smooth="yes"/>
      <point x="66" y="6"/>
      <point x="86" y="-10"/>
    </contour>
  </outline>
</glyph>
<glyph name="u108E5" format="2">
  <advance width="292"/>
  <unicode hex="108E5"/>
  <outline>
    <contour>
      <point x="90" y="-10" type="curve" smooth="yes"/>
      <point x="102" y="-10"/>
      <point x="117" y="-1"/>
      <point x="130" y="12" type="curve" smooth="yes"/>
      <point x="195" y="77"/>
      <point x="232" y="150"/>
      <point x="232" y="275" type="curve" smooth="yes"/>
      <point x="232" y="381"/>
      <point x="198" y="459"/>
      <point x="143" y="545" type="curve" smooth="yes"/>
      <point x="136" y="555"/>
      <point x="127" y="560"/>
      <point x="116" y="560" type="curve" smooth="yes"/>
      <point x="88" y="560"/>
      <point x="56" y="532"/>
      <point x="56" y="519" type="curve" smooth="yes"/>
      <point x="56" y="514"/>
      <point x="58" y="509"/>
      <point x="62" y="503" type="curve" smooth="yes"/>
      <point x="110" y="432"/>
      <point x="137" y="353"/>
      <point x="137" y="275" type="curve" smooth="yes"/>
      <point x="137" y="177"/>
      <point x="100" y="115"/>
      <point x="55" y="67" type="curve" smooth="yes"/>
      <point x="44" y="56"/>
      <point x="40" y="45"/>
      <point x="40" y="36" type="curve" smooth="yes"/>
      <point x="40" y="20"/>
      <point x="63" y="-10"/>
    </contour>
  </outline>
</glyph>
<glyph name="u108E6" format="2">
  <advance width="330"/>
  <unicode hex="108E6"/>
  <outline>
    <contour>
      <point x="165" y="-10" type="curve" smooth="yes"/>
      <point x="188" y="-10"/>
      <point x="210" y="-3"/>
      <point x="210" y="9" type="curve" smooth="yes"/>
      <point x="210" y="541" type="line" smooth="yes"/>
      <point x="210" y="553"/>
      <point x="188" y="560"/>
      <point x="165" y="560" type="curve" smooth="yes"/>
      <point x="143" y="560"/>
      <point x="120" y="553"/>
      <point x="120" y="541" type="curve" smooth="yes"/>
      <point x="120" y="9" type="line" smooth="yes"/>
      <point x="120" y="-3"/>
      <point x="143" y="-10"/>
    </contour>
  </outline>
</glyph>
<glyph name="u108E7" format="2">
  <advance width="742"/>
  <unicode hex="108E7"/>
  <outline>
    <contour>
      <point x="145" y="-10" type="curve" smooth="yes"/>
      <point x="167" y="-10"/>
      <point x="190" y="-3"/>
      <point x="190" y="9" type="curve" smooth="yes"/>
      <point x="190" y="403" type="line" smooth="yes"/>
      <point x="190" y="407"/>
      <point x="191" y="410"/>
      <point x="192" y="413" type="curve"/>
      <point x="538" y="22" type="line" smooth="yes"/>
      <point x="552" y="6"/>
      <point x="574" y="-10"/>
      <point x="598" y="-10" type="curve" smooth="yes"/>
      <point x="635" y="-10"/>
      <point x="642" y="5"/>
      <point x="642" y="60" type="curve" smooth="yes"/>
      <point x="642" y="541" type="line" smooth="yes"/>
      <point x="642" y="553"/>
      <point x="620" y="560"/>
      <point x="597" y="560" type="curve" smooth="yes"/>
      <point x="575" y="560"/>
      <point x="552" y="553"/>
      <point x="552" y="541" type="curve" smooth="yes"/>
      <point x="552" y="147" type="line" smooth="yes"/>
      <point x="552" y="143"/>
      <point x="551" y="140"/>
      <point x="550" y="137" type="curve"/>
      <point x="204" y="528" type="line" smooth="yes"/>
      <point x="190" y="544"/>
      <point x="168" y="560"/>
      <point x="144" y="560" type="curve" smooth="yes"/>
      <point x="107" y="560"/>
      <point x="100" y="545"/>
      <point x="100" y="490" type="curve" smooth="yes"/>
      <point x="100" y="9" type="line" smooth="yes"/>
      <point x="100" y="-3"/>
      <point x="122" y="-10"/>
    </contour>
  </outline>
</glyph>
<glyph name="u108E8" format="2">
  <advance width="662"/>
  <unicode hex="108E8"/>
  <outline>
    <contour>
      <point x="327" y="-10" type="curve" smooth="yes"/>
      <point x="511" y="-10"/>
      <point x="602" y="100"/>
      <point x="602" y="252" type="curve" smooth="yes"/>
      <point x="602" y="321"/>
      <point x="573" y="370"/>
      <point x="559" y="391" type="curve" smooth="yes"/>
      <point x="548" y="407"/>
      <point x="539" y="420"/>
      <point x="524" y="420" type="curve" smooth="yes"/>
      <point x="497" y="420"/>
      <point x="467" y="394"/>
      <point x="467" y="374" type="curve" smooth="yes"/>
      <point x="467" y="364"/>
      <point x="472" y="356"/>
      <point x="476" y="351" type="curve" smooth="yes"/>
      <point x="492" y="331"/>
      <point x="508" y="287"/>
      <point x="508" y="238" type="curve" smooth="yes"/>
      <point x="508" y="147"/>
      <point x="436" y="68"/>
      <point x="337" y="68" type="curve" smooth="yes"/>
      <point x="265" y="68"/>
      <point x="155" y="117"/>
      <point x="155" y="275" type="curve" smooth="yes"/>
      <point x="155" y="413"/>
      <point x="250" y="564"/>
      <point x="375" y="676" type="curve" smooth="yes"/>
      <point x="393" y="692"/>
      <point x="402" y="707"/>
      <point x="402" y="717" type="curve" smooth="yes"/>
      <point x="402" y="736"/>
      <point x="378" y="763"/>
      <point x="353" y="763" type="curve" smooth="yes"/>
      <point x="335" y="763"/>
      <point x="313" y="741"/>
      <point x="294" y="722" type="curve" smooth="yes"/>
      <point x="197" y="625"/>
      <point x="60" y="468"/>
      <point x="60" y="275" type="curve" smooth="yes"/>
      <point x="60" y="77"/>
      <point x="185" y="-10"/>
    </contour>
  </outline>
</glyph>
<glyph name="u108E9" format="2">
  <advance width="387"/>
  <unicode hex="108E9"/>
  <outline>
    <contour>
      <point x="177" y="7" type="curve" smooth="yes"/>
      <point x="192" y="7"/>
      <point x="207" y="17"/>
      <point x="220" y="35" type="curve" smooth="yes"/>
      <point x="238" y="60"/>
      <point x="262" y="96"/>
      <point x="262" y="161" type="curve" smooth="yes"/>
      <point x="262" y="222"/>
      <point x="229" y="274"/>
      <point x="200" y="313" type="curve" smooth="yes"/>
      <point x="175" y="346"/>
      <point x="155" y="376"/>
      <point x="155" y="405" type="curve" smooth="yes"/>
      <point x="155" y="448"/>
      <point x="219" y="474"/>
      <point x="275" y="482" type="curve" smooth="yes"/>
      <point x="317" y="488"/>
      <point x="327" y="504"/>
      <point x="327" y="526" type="curve" smooth="yes"/>
      <point x="327" y="546"/>
      <point x="320" y="571"/>
      <point x="298" y="571" type="curve" smooth="yes"/>
      <point x="291" y="571"/>
      <point x="268" y="567"/>
      <point x="257" y="565" type="curve" smooth="yes"/>
      <point x="147" y="545"/>
      <point x="60" y="499"/>
      <point x="60" y="413" type="curve" smooth="yes"/>
      <point x="60" y="360"/>
      <point x="86" y="319"/>
      <point x="114" y="277" type="curve" smooth="yes"/>
      <point x="140" y="238"/>
      <point x="167" y="197"/>
      <point x="167" y="147" type="curve" smooth="yes"/>
      <point x="167" y="117"/>
      <point x="164" y="104"/>
      <point x="143" y="78" type="curve" smooth="yes"/>
      <point x="132" y="64"/>
      <point x="129" y="58"/>
      <point x="129" y="46" type="curve" smooth="yes"/>
      <point x="129" y="32"/>
      <point x="153" y="7"/>
    </contour>
  </outline>
</glyph>
<glyph name="u108EA" format="2">
  <advance width="602"/>
  <unicode hex="108EA"/>
  <outline>
    <contour>
      <point x="457" y="-220" type="curve" smooth="yes"/>
      <point x="480" y="-220"/>
      <point x="502" y="-213"/>
      <point x="502" y="-201" type="curve" smooth="yes"/>
      <point x="502" y="480" type="line" smooth="yes"/>
      <point x="502" y="531"/>
      <point x="485" y="560"/>
      <point x="404" y="560" type="curve" smooth="yes"/>
      <point x="51" y="560" type="line" smooth="yes"/>
      <point x="37" y="560"/>
      <point x="30" y="540"/>
      <point x="30" y="520" type="curve" smooth="yes"/>
      <point x="30" y="500"/>
      <point x="37" y="480"/>
      <point x="51" y="480" type="curve" smooth="yes"/>
      <point x="346" y="480" type="line" smooth="yes"/>
      <point x="404" y="480"/>
      <point x="412" y="465"/>
      <point x="412" y="421" type="curve" smooth="yes"/>
      <point x="412" y="-201" type="line" smooth="yes"/>
      <point x="412" y="-213"/>
      <point x="435" y="-220"/>
    </contour>
  </outline>
</glyph>
<glyph name="u108EB" format="2">
  <advance width="555"/>
  <unicode hex="108EB"/>
  <outline>
    <contour>
      <point x="410" y="36" type="curve" smooth="yes"/>
      <point x="433" y="36"/>
      <point x="455" y="43"/>
      <point x="455" y="55" type="curve" smooth="yes"/>
      <point x="455" y="312" type="line" smooth="yes"/>
      <point x="455" y="346"/>
      <point x="443" y="380"/>
      <point x="419" y="407" type="curve" smooth="yes"/>
      <point x="128" y="734" type="line" smooth="yes"/>
      <point x="118" y="746"/>
      <point x="103" y="760"/>
      <point x="88" y="760" type="curve" smooth="yes"/>
      <point x="69" y="760"/>
      <point x="39" y="743"/>
      <point x="39" y="712" type="curve" smooth="yes"/>
      <point x="39" y="701"/>
      <point x="44" y="690"/>
      <point x="58" y="674" type="curve" smooth="yes"/>
      <point x="333" y="371" type="line" smooth="yes"/>
      <point x="354" y="347"/>
      <point x="365" y="324"/>
      <point x="365" y="291" type="curve" smooth="yes"/>
      <point x="365" y="55" type="line" smooth="yes"/>
      <point x="365" y="43"/>
      <point x="388" y="36"/>
    </contour>
  </outline>
</glyph>
<glyph name="u108EC" format="2">
  <advance width="722"/>
  <unicode hex="108EC"/>
  <outline>
    <contour>
      <point x="185" y="-10" type="curve" smooth="yes"/>
      <point x="208" y="-10"/>
      <point x="230" y="-3"/>
      <point x="230" y="9" type="curve" smooth="yes"/>
      <point x="230" y="480" type="line"/>
      <point x="466" y="480" type="line" smooth="yes"/>
      <point x="524" y="480"/>
      <point x="532" y="465"/>
      <point x="532" y="421" type="curve" smooth="yes"/>
      <point x="532" y="9" type="line" smooth="yes"/>
      <point x="532" y="-3"/>
      <point x="555" y="-10"/>
      <point x="577" y="-10" type="curve" smooth="yes"/>
      <point x="600" y="-10"/>
      <point x="622" y="-3"/>
      <point x="622" y="9" type="curve" smooth="yes"/>
      <point x="622" y="480" type="line" smooth="yes"/>
      <point x="622" y="531"/>
      <point x="605" y="560"/>
      <point x="524" y="560" type="curve" smooth="yes"/>
      <point x="230" y="560" type="line"/>
      <point x="230" y="681" type="line" smooth="yes"/>
      <point x="230" y="693"/>
      <point x="208" y="700"/>
      <point x="185" y="700" type="curve" smooth="yes"/>
      <point x="163" y="700"/>
      <point x="140" y="693"/>
      <point x="140" y="681" type="curve" smooth="yes"/>
      <point x="140" y="560" type="line"/>
      <point x="51" y="560" type="line" smooth="yes"/>
      <point x="37" y="560"/>
      <point x="30" y="540"/>
      <point x="30" y="520" type="curve" smooth="yes"/>
      <point x="30" y="500"/>
      <point x="37" y="480"/>
      <point x="51" y="480" type="curve" smooth="yes"/>
      <point x="140" y="480" type="line"/>
      <point x="140" y="9" type="line" smooth="yes"/>
      <point x="140" y="-3"/>
      <point x="163" y="-10"/>
    </contour>
  </outline>
</glyph>
<glyph name="u108ED" format="2">
  <advance width="330"/>
  <unicode hex="108ED"/>
  <outline>
    <contour>
      <point x="165" y="-220" type="curve" smooth="yes"/>
      <point x="188" y="-220"/>
      <point x="210" y="-213"/>
      <point x="210" y="-201" type="curve" smooth="yes"/>
      <point x="210" y="541" type="line" smooth="yes"/>
      <point x="210" y="553"/>
      <point x="188" y="560"/>
      <point x="165" y="560" type="curve" smooth="yes"/>
      <point x="143" y="560"/>
      <point x="120" y="553"/>
      <point x="120" y="541" type="curve" smooth="yes"/>
      <point x="120" y="-201" type="line" smooth="yes"/>
      <point x="120" y="-213"/>
      <point x="143" y="-220"/>
    </contour>
  </outline>
</glyph>
<glyph name="u108EE" format="2">
  <advance width="792"/>
  <unicode hex="108EE"/>
  <outline>
    <contour>
      <point x="145" y="-10" type="curve" smooth="yes"/>
      <point x="168" y="-10"/>
      <point x="190" y="-3"/>
      <point x="190" y="9" type="curve" smooth="yes"/>
      <point x="190" y="480" type="line"/>
      <point x="536" y="480" type="line" smooth="yes"/>
      <point x="594" y="480"/>
      <point x="602" y="465"/>
      <point x="602" y="421" type="curve" smooth="yes"/>
      <point x="602" y="9" type="line" smooth="yes"/>
      <point x="602" y="-3"/>
      <point x="625" y="-10"/>
      <point x="647" y="-10" type="curve" smooth="yes"/>
      <point x="670" y="-10"/>
      <point x="692" y="-3"/>
      <point x="692" y="9" type="curve" smooth="yes"/>
      <point x="692" y="480" type="line" smooth="yes"/>
      <point x="692" y="531"/>
      <point x="675" y="560"/>
      <point x="594" y="560" type="curve" smooth="yes"/>
      <point x="190" y="560" type="line"/>
      <point x="190" y="681" type="line" smooth="yes"/>
      <point x="190" y="693"/>
      <point x="168" y="700"/>
      <point x="145" y="700" type="curve" smooth="yes"/>
      <point x="123" y="700"/>
      <point x="100" y="693"/>
      <point x="100" y="681" type="curve" smooth="yes"/>
      <point x="100" y="9" type="line" smooth="yes"/>
      <point x="100" y="-3"/>
      <point x="123" y="-10"/>
    </contour>
  </outline>
</glyph>
<glyph name="u108EF" format="2">
  <advance width="423"/>
  <unicode hex="108EF"/>
  <outline>
    <contour>
      <point x="106" y="23" type="curve" smooth="yes"/>
      <point x="119" y="23"/>
      <point x="131" y="32"/>
      <point x="149" y="49" type="curve" smooth="yes"/>
      <point x="336" y="224" type="line" smooth="yes"/>
      <point x="355" y="242"/>
      <point x="369" y="258"/>
      <point x="369" y="276" type="curve" smooth="yes"/>
      <point x="369" y="289"/>
      <point x="361" y="304"/>
      <point x="342" y="322" type="curve" smooth="yes"/>
      <point x="137" y="512" type="line" smooth="yes"/>
      <point x="126" y="522"/>
      <point x="115" y="527"/>
      <point x="106" y="527" type="curve" smooth="yes"/>
      <point x="84" y="527"/>
      <point x="57" y="499"/>
      <point x="57" y="474" type="curve" smooth="yes"/>
      <point x="57" y="464"/>
      <point x="62" y="456"/>
      <point x="71" y="448" type="curve" smooth="yes"/>
      <point x="261" y="274" type="line"/>
      <point x="89" y="118" type="line" smooth="yes"/>
      <point x="71" y="102"/>
      <point x="57" y="88"/>
      <point x="57" y="76" type="curve" smooth="yes"/>
      <point x="57" y="64"/>
      <point x="75" y="23"/>
    </contour>
  </outline>
</glyph>
<glyph name="u108F0" format="2">
  <advance width="627"/>
  <unicode hex="108F0"/>
  <outline>
    <contour>
      <point x="492" y="-220" type="curve" smooth="yes"/>
      <point x="515" y="-220"/>
      <point x="537" y="-213"/>
      <point x="537" y="-201" type="curve" smooth="yes"/>
      <point x="537" y="318" type="line" smooth="yes"/>
      <point x="537" y="453"/>
      <point x="428" y="560"/>
      <point x="293" y="560" type="curve" smooth="yes"/>
      <point x="158" y="560"/>
      <point x="50" y="453"/>
      <point x="50" y="318" type="curve" smooth="yes"/>
      <point x="50" y="183"/>
      <point x="158" y="77"/>
      <point x="293" y="77" type="curve" smooth="yes"/>
      <point x="351" y="77"/>
      <point x="405" y="97"/>
      <point x="447" y="130" type="curve"/>
      <point x="447" y="-201" type="line" smooth="yes"/>
      <point x="447" y="-213"/>
      <point x="470" y="-220"/>
    </contour>
    <contour>
      <point x="293" y="154" type="curve" smooth="yes"/>
      <point x="203" y="154"/>
      <point x="144" y="228"/>
      <point x="144" y="318" type="curve" smooth="yes"/>
      <point x="144" y="406"/>
      <point x="203" y="482"/>
      <point x="293" y="482" type="curve" smooth="yes"/>
      <point x="383" y="482"/>
      <point x="444" y="406"/>
      <point x="444" y="318" type="curve" smooth="yes"/>
      <point x="444" y="228"/>
      <point x="383" y="154"/>
    </contour>
  </outline>
</glyph>
<glyph name="u108F4" format="2">
  <advance width="855"/>
  <unicode hex="108F4"/>
  <outline>
    <contour>
      <point x="174" y="0" type="curve" smooth="yes"/>
      <point x="818" y="0" type="line" smooth="yes"/>
      <point x="837" y="0"/>
      <point x="845" y="8"/>
      <point x="845" y="17" type="curve" smooth="yes"/>
      <point x="845" y="28"/>
      <point x="843" y="34"/>
      <point x="822" y="50" type="curve" smooth="yes"/>
      <point x="158" y="541" type="line" smooth="yes"/>
      <point x="144" y="552"/>
      <point x="133" y="560"/>
      <point x="120" y="560" type="curve" smooth="yes"/>
      <point x="105" y="560"/>
      <point x="100" y="544"/>
      <point x="100" y="526" type="curve" smooth="yes"/>
      <point x="100" y="65" type="line" smooth="yes"/>
      <point x="100" y="10"/>
      <point x="121" y="0"/>
    </contour>
    <contour>
      <point x="228" y="80" type="line" smooth="yes"/>
      <point x="202" y="80"/>
      <point x="190" y="87"/>
      <point x="190" y="116" type="curve" smooth="yes"/>
      <point x="190" y="412" type="line"/>
      <point x="638" y="80" type="line"/>
    </contour>
  </outline>
</glyph>
<glyph name="u108F5" format="2">
  <advance width="682"/>
  <unicode hex="108F5"/>
  <outline>
    <contour>
      <point x="145" y="-220" type="curve" smooth="yes"/>
      <point x="168" y="-220"/>
      <point x="190" y="-213"/>
      <point x="190" y="-201" type="curve" smooth="yes"/>
      <point x="190" y="280" type="line"/>
      <point x="426" y="280" type="line" smooth="yes"/>
      <point x="484" y="280"/>
      <point x="492" y="265"/>
      <point x="492" y="221" type="curve" smooth="yes"/>
      <point x="492" y="9" type="line" smooth="yes"/>
      <point x="492" y="-3"/>
      <point x="515" y="-10"/>
      <point x="537" y="-10" type="curve" smooth="yes"/>
      <point x="560" y="-10"/>
      <point x="582" y="-3"/>
      <point x="582" y="9" type="curve" smooth="yes"/>
      <point x="582" y="280" type="line" smooth="yes"/>
      <point x="582" y="331"/>
      <point x="565" y="360"/>
      <point x="484" y="360" type="curve" smooth="yes"/>
      <point x="190" y="360" type="line"/>
      <point x="190" y="541" type="line" smooth="yes"/>
      <point x="190" y="553"/>
      <point x="168" y="560"/>
      <point x="145" y="560" type="curve" smooth="yes"/>
      <point x="123" y="560"/>
      <point x="100" y="553"/>
      <point x="100" y="541" type="curve" smooth="yes"/>
      <point x="100" y="-201" type="line" smooth="yes"/>
      <point x="100" y="-213"/>
      <point x="123" y="-220"/>
    </contour>
  </outline>
</glyph>
<glyph name="u108FC" format="2">
  <advance width="487"/>
  <unicode hex="108FC"/>
  <outline>
    <contour>
      <point x="132" y="-7" type="curve" smooth="yes"/>
      <point x="143" y="-7"/>
      <point x="155" y="-2"/>
      <point x="169" y="11" type="curve" smooth="yes"/>
      <point x="422" y="246" type="line" smooth="yes"/>
      <point x="434" y="257"/>
      <point x="443" y="266"/>
      <point x="443" y="276" type="curve" smooth="yes"/>
      <point x="443" y="284"/>
      <point x="438" y="292"/>
      <point x="422" y="307" type="curve" smooth="yes"/>
      <point x="169" y="541" type="line" smooth="yes"/>
      <point x="160" y="550"/>
      <point x="145" y="560"/>
      <point x="133" y="560" type="curve" smooth="yes"/>
      <point x="115" y="560"/>
      <point x="88" y="534"/>
      <point x="88" y="508" type="curve" smooth="yes"/>
      <point x="88" y="493"/>
      <point x="94" y="486"/>
      <point x="106" y="475" type="curve" smooth="yes"/>
      <point x="317" y="276" type="line"/>
      <point x="112" y="83" type="line" smooth="yes"/>
      <point x="95" y="67"/>
      <point x="87" y="55"/>
      <point x="87" y="44" type="curve" smooth="yes"/>
      <point x="87" y="27"/>
      <point x="104" y="-7"/>
    </contour>
  </outline>
</glyph>
<glyph name="u108FD" format="2">
  <advance width="632"/>
  <unicode hex="108FD"/>
  <outline>
    <contour>
      <point x="487" y="-10" type="curve" smooth="yes"/>
      <point x="510" y="-10"/>
      <point x="532" y="-3"/>
      <point x="532" y="9" type="curve" smooth="yes"/>
      <point x="532" y="480" type="line" smooth="yes"/>
      <point x="532" y="531"/>
      <point x="515" y="560"/>
      <point x="434" y="560" type="curve" smooth="yes"/>
      <point x="51" y="560" type="line" smooth="yes"/>
      <point x="37" y="560"/>
      <point x="30" y="540"/>
      <point x="30" y="520" type="curve" smooth="yes"/>
      <point x="30" y="500"/>
      <point x="37" y="480"/>
      <point x="51" y="480" type="curve" smooth="yes"/>
      <point x="376" y="480" type="line" smooth="yes"/>
      <point x="434" y="480"/>
      <point x="442" y="465"/>
      <point x="442" y="421" type="curve" smooth="yes"/>
      <point x="442" y="9" type="line" smooth="yes"/>
      <point x="442" y="-3"/>
      <point x="465" y="-10"/>
    </contour>
  </outline>
</glyph>
<glyph name="u108FE" format="2">
  <advance width="466"/>
  <unicode hex="108FE"/>
  <outline>
    <contour>
      <point x="140" y="-11" type="curve" smooth="yes"/>
      <point x="148" y="-11"/>
      <point x="155" y="-9"/>
      <point x="164" y="-3" type="curve" smooth="yes"/>
      <point x="358" y="133" type="line" smooth="yes"/>
      <point x="370" y="142"/>
      <point x="376" y="148"/>
      <point x="376" y="156" type="curve" smooth="yes"/>
      <point x="376" y="165"/>
      <point x="370" y="175"/>
      <point x="358" y="183" type="curve" smooth="yes"/>
      <point x="223" y="279" type="line"/>
      <point x="358" y="374" type="line" smooth="yes"/>
      <point x="372" y="384"/>
      <point x="376" y="392"/>
      <point x="376" y="400" type="curve" smooth="yes"/>
      <point x="376" y="408"/>
      <point x="372" y="414"/>
      <point x="358" y="424" type="curve" smooth="yes"/>
      <point x="164" y="560" type="line" smooth="yes"/>
      <point x="155" y="566"/>
      <point x="147" y="569"/>
      <point x="140" y="569" type="curve" smooth="yes"/>
      <point x="120" y="569"/>
      <point x="95" y="545"/>
      <point x="95" y="521" type="curve" smooth="yes"/>
      <point x="95" y="511"/>
      <point x="100" y="500"/>
      <point x="111" y="492" type="curve" smooth="yes"/>
      <point x="238" y="399" type="line"/>
      <point x="105" y="301" type="line" smooth="yes"/>
      <point x="95" y="294"/>
      <point x="90" y="287"/>
      <point x="90" y="279" type="curve" smooth="yes"/>
      <point x="90" y="272"/>
      <point x="94" y="265"/>
      <point x="105" y="257" type="curve" smooth="yes"/>
      <point x="238" y="159" type="line"/>
      <point x="111" y="65" type="line" smooth="yes"/>
      <point x="98" y="55"/>
      <point x="93" y="44"/>
      <point x="93" y="35" type="curve" smooth="yes"/>
      <point x="93" y="22"/>
      <point x="112" y="-11"/>
    </contour>
  </outline>
</glyph>
<glyph name="u108FF" format="2">
  <advance width="878"/>
  <unicode hex="108FF"/>
  <outline>
    <contour>
      <point x="46" y="0" type="curve" smooth="yes"/>
      <point x="832" y="0" type="line" smooth="yes"/>
      <point x="848" y="0"/>
      <point x="858" y="6"/>
      <point x="858" y="17" type="curve" smooth="yes"/>
      <point x="858" y="24"/>
      <point x="854" y="32"/>
      <point x="844" y="45" type="curve" smooth="yes"/>
      <point x="479" y="545" type="line" smooth="yes"/>
      <point x="467" y="561"/>
      <point x="453" y="569"/>
      <point x="439" y="569" type="curve" smooth="yes"/>
      <point x="424" y="569"/>
      <point x="410" y="561"/>
      <point x="398" y="545" type="curve" smooth="yes"/>
      <point x="34" y="45" type="line" smooth="yes"/>
      <point x="24" y="32"/>
      <point x="20" y="24"/>
      <point x="20" y="17" type="curve" smooth="yes"/>
      <point x="20" y="6"/>
      <point x="30" y="0"/>
    </contour>
    <contour>
      <point x="173" y="80" type="line"/>
      <point x="439" y="450" type="line"/>
      <point x="705" y="80" type="line"/>
    </contour>
  </outline>
</glyph>
